<svg height="9822" width="720" xmlns="http://www.w3.org/2000/svg">
<rect height="9822" fill="#555" width="720"></rect>
<text fill="#7f7" font-family="Courier New" font-size="12" xml:space="preserve">
<tspan x="10" y="26">26 megabytes installed</tspan>
<tspan x="10" y="42"></tspan>
<tspan x="10" y="58">node_modules</tspan>
<tspan x="10" y="74">└─┬ assemble@0.23.0 </tspan>
<tspan x="10" y="90">  ├─┬ assemble-core@0.31.0 </tspan>
<tspan x="10" y="106">  │ ├─┬ assemble-fs@1.0.0 </tspan>
<tspan x="10" y="122">  │ │ ├── assemble-handle@0.1.3 </tspan>
<tspan x="10" y="138">  │ │ ├─┬ stream-combiner@0.2.2 </tspan>
<tspan x="10" y="154">  │ │ │ ├── duplexer@0.1.1 </tspan>
<tspan x="10" y="170">  │ │ │ └── through@2.3.8 </tspan>
<tspan x="10" y="186">  │ │ ├─┬ through2@2.0.3 </tspan>
<tspan x="10" y="202">  │ │ │ ├─┬ readable-stream@2.2.9 </tspan>
<tspan x="10" y="218">  │ │ │ │ ├── buffer-shims@1.0.0 </tspan>
<tspan x="10" y="234">  │ │ │ │ ├── core-util-is@1.0.2 </tspan>
<tspan x="10" y="250">  │ │ │ │ ├── inherits@2.0.3 </tspan>
<tspan x="10" y="266">  │ │ │ │ ├── process-nextick-args@1.0.7 </tspan>
<tspan x="10" y="282">  │ │ │ │ ├── string_decoder@1.0.0 </tspan>
<tspan x="10" y="298">  │ │ │ │ └── util-deprecate@1.0.2 </tspan>
<tspan x="10" y="314">  │ │ │ └── xtend@4.0.1 </tspan>
<tspan x="10" y="330">  │ │ └─┬ vinyl-fs@2.4.4 </tspan>
<tspan x="10" y="346">  │ │   ├─┬ duplexify@3.5.0 </tspan>
<tspan x="10" y="362">  │ │   │ ├── end-of-stream@1.0.0 </tspan>
<tspan x="10" y="378">  │ │   │ └── stream-shift@1.0.0 </tspan>
<tspan x="10" y="394">  │ │   ├─┬ glob-stream@5.3.5 </tspan>
<tspan x="10" y="410">  │ │   │ ├── extend@3.0.0 </tspan>
<tspan x="10" y="426">  │ │   │ ├── glob@5.0.15 </tspan>
<tspan x="10" y="442">  │ │   │ ├── ordered-read-streams@0.3.0 </tspan>
<tspan x="10" y="458">  │ │   │ ├─┬ through2@0.6.5 </tspan>
<tspan x="10" y="474">  │ │   │ │ └─┬ readable-stream@1.0.34 </tspan>
<tspan x="10" y="490">  │ │   │ │   ├── isarray@0.0.1 </tspan>
<tspan x="10" y="506">  │ │   │ │   └── string_decoder@0.10.31 </tspan>
<tspan x="10" y="522">  │ │   │ ├── to-absolute-glob@0.1.1 </tspan>
<tspan x="10" y="538">  │ │   │ └─┬ unique-stream@2.2.1 </tspan>
<tspan x="10" y="554">  │ │   │   └─┬ json-stable-stringify@1.0.1 </tspan>
<tspan x="10" y="570">  │ │   │     └── jsonify@0.0.0 </tspan>
<tspan x="10" y="586">  │ │   ├── graceful-fs@4.1.11 </tspan>
<tspan x="10" y="602">  │ │   ├─┬ gulp-sourcemaps@1.6.0 </tspan>
<tspan x="10" y="618">  │ │   │ └── convert-source-map@1.5.0 </tspan>
<tspan x="10" y="634">  │ │   ├── lazystream@1.0.0 </tspan>
<tspan x="10" y="650">  │ │   ├── lodash.isequal@4.5.0 </tspan>
<tspan x="10" y="666">  │ │   ├── merge-stream@1.0.1 </tspan>
<tspan x="10" y="682">  │ │   ├── mkdirp@0.5.1 </tspan>
<tspan x="10" y="698">  │ │   ├── object-assign@4.1.1 </tspan>
<tspan x="10" y="714">  │ │   ├── strip-bom@2.0.0 </tspan>
<tspan x="10" y="730">  │ │   ├─┬ strip-bom-stream@1.0.0 </tspan>
<tspan x="10" y="746">  │ │   │ └── first-chunk-stream@1.0.0 </tspan>
<tspan x="10" y="762">  │ │   ├── through2-filter@2.0.0 </tspan>
<tspan x="10" y="778">  │ │   ├── vali-date@1.0.0 </tspan>
<tspan x="10" y="794">  │ │   └─┬ vinyl@1.2.0 </tspan>
<tspan x="10" y="810">  │ │     ├── clone-stats@0.0.1 </tspan>
<tspan x="10" y="826">  │ │     └── replace-ext@0.0.1 </tspan>
<tspan x="10" y="842">  │ ├─┬ assemble-render-file@1.0.2 </tspan>
<tspan x="10" y="858">  │ │ ├── async-array-reduce@0.2.1 </tspan>
<tspan x="10" y="874">  │ │ └─┬ plugin-error@0.1.2 </tspan>
<tspan x="10" y="890">  │ │   ├─┬ arr-diff@1.1.0 </tspan>
<tspan x="10" y="906">  │ │   │ └── array-slice@0.2.3 </tspan>
<tspan x="10" y="922">  │ │   ├── arr-union@2.1.0 </tspan>
<tspan x="10" y="938">  │ │   └─┬ extend-shallow@1.1.4 </tspan>
<tspan x="10" y="954">  │ │     └── kind-of@1.1.0 </tspan>
<tspan x="10" y="970">  │ ├─┬ assemble-streams@1.0.1 </tspan>
<tspan x="10" y="986">  │ │ ├── match-file@0.2.2 </tspan>
<tspan x="10" y="1002">  │ │ └─┬ src-stream@0.1.1 </tspan>
<tspan x="10" y="1018">  │ │   └─┬ merge-stream@0.1.8 </tspan>
<tspan x="10" y="1034">  │ │     └─┬ through2@0.6.5 </tspan>
<tspan x="10" y="1050">  │ │       └─┬ readable-stream@1.0.34 </tspan>
<tspan x="10" y="1066">  │ │         ├── isarray@0.0.1 </tspan>
<tspan x="10" y="1082">  │ │         └── string_decoder@0.10.31 </tspan>
<tspan x="10" y="1098">  │ ├─┬ base-task@0.7.0 </tspan>
<tspan x="10" y="1114">  │ │ └─┬ composer@0.14.0 </tspan>
<tspan x="10" y="1130">  │ │   ├─┬ bach@1.1.0 </tspan>
<tspan x="10" y="1146">  │ │   │ ├─┬ arr-filter@1.1.2 </tspan>
<tspan x="10" y="1162">  │ │   │ │ └── make-iterator@1.0.0 </tspan>
<tspan x="10" y="1178">  │ │   │ ├── arr-map@2.0.2 </tspan>
<tspan x="10" y="1194">  │ │   │ ├── array-each@1.0.1 </tspan>
<tspan x="10" y="1210">  │ │   │ ├─┬ array-initial@1.0.0 </tspan>
<tspan x="10" y="1226">  │ │   │ │ └── is-number@0.1.1 </tspan>
<tspan x="10" y="1242">  │ │   │ ├─┬ array-last@1.1.1 </tspan>
<tspan x="10" y="1258">  │ │   │ │ └── is-number@0.1.1 </tspan>
<tspan x="10" y="1274">  │ │   │ ├─┬ async-done@1.2.2 </tspan>
<tspan x="10" y="1290">  │ │   │ │ ├─┬ end-of-stream@1.4.0 </tspan>
<tspan x="10" y="1306">  │ │   │ │ │ └── once@1.4.0 </tspan>
<tspan x="10" y="1322">  │ │   │ │ ├── next-tick@1.0.0 </tspan>
<tspan x="10" y="1338">  │ │   │ │ └── stream-exhaust@1.0.1 </tspan>
<tspan x="10" y="1354">  │ │   │ ├── async-settle@1.0.0 </tspan>
<tspan x="10" y="1370">  │ │   │ └── now-and-later@1.0.0 </tspan>
<tspan x="10" y="1386">  │ │   ├── co@4.6.0 </tspan>
<tspan x="10" y="1402">  │ │   ├── component-emitter@1.2.1 </tspan>
<tspan x="10" y="1418">  │ │   ├── is-generator@1.0.3 </tspan>
<tspan x="10" y="1434">  │ │   ├─┬ is-glob@2.0.1 </tspan>
<tspan x="10" y="1450">  │ │   │ └── is-extglob@1.0.0 </tspan>
<tspan x="10" y="1466">  │ │   ├── isobject@2.1.0 </tspan>
<tspan x="10" y="1482">  │ │   └── nanoseconds@0.1.0 </tspan>
<tspan x="10" y="1498">  │ ├─┬ define-property@0.2.5 </tspan>
<tspan x="10" y="1514">  │ │ └─┬ is-descriptor@0.1.5 </tspan>
<tspan x="10" y="1530">  │ │   ├── is-accessor-descriptor@0.1.6 </tspan>
<tspan x="10" y="1546">  │ │   └── is-data-descriptor@0.1.4 </tspan>
<tspan x="10" y="1562">  │ └─┬ templates@1.2.8 </tspan>
<tspan x="10" y="1578">  │   ├─┬ array-sort@0.1.2 </tspan>
<tspan x="10" y="1594">  │   │ └── kind-of@2.0.1 </tspan>
<tspan x="10" y="1610">  │   ├── async-each@1.0.1 </tspan>
<tspan x="10" y="1626">  │   ├─┬ base@0.11.1 </tspan>
<tspan x="10" y="1642">  │   │ ├── arr-union@3.1.0 </tspan>
<tspan x="10" y="1658">  │   │ ├─┬ class-utils@0.3.5 </tspan>
<tspan x="10" y="1674">  │   │ │ ├── arr-union@3.1.0 </tspan>
<tspan x="10" y="1690">  │   │ │ └─┬ static-extend@0.1.2 </tspan>
<tspan x="10" y="1706">  │   │ │   └─┬ object-copy@0.1.0 </tspan>
<tspan x="10" y="1722">  │   │ │     └── copy-descriptor@0.1.1 </tspan>
<tspan x="10" y="1738">  │   │ └── isobject@2.1.0 </tspan>
<tspan x="10" y="1754">  │   ├─┬ base-data@0.6.0 </tspan>
<tspan x="10" y="1770">  │   │ ├─┬ has-glob@0.1.1 </tspan>
<tspan x="10" y="1786">  │   │ │ └─┬ is-glob@2.0.1 </tspan>
<tspan x="10" y="1802">  │   │ │   └── is-extglob@1.0.0 </tspan>
<tspan x="10" y="1818">  │   │ ├─┬ merge-value@0.1.1 </tspan>
<tspan x="10" y="1834">  │   │ │ ├─┬ get-value@1.3.1 </tspan>
<tspan x="10" y="1850">  │   │ │ │ └── noncharacters@1.1.0 </tspan>
<tspan x="10" y="1866">  │   │ │ ├── lazy-cache@0.2.7 </tspan>
<tspan x="10" y="1882">  │   │ │ └─┬ set-value@0.2.0 </tspan>
<tspan x="10" y="1898">  │   │ │   └── isobject@1.0.2 </tspan>
<tspan x="10" y="1914">  │   │ ├── read-file@0.2.0 </tspan>
<tspan x="10" y="1930">  │   │ ├─┬ resolve-glob@0.1.8 </tspan>
<tspan x="10" y="1946">  │   │ │ ├── lazy-cache@1.0.4 </tspan>
<tspan x="10" y="1962">  │   │ │ ├─┬ relative@3.0.2 </tspan>
<tspan x="10" y="1978">  │   │ │ │ └── isobject@2.1.0 </tspan>
<tspan x="10" y="1994">  │   │ │ └── resolve-dir@0.1.1 </tspan>
<tspan x="10" y="2010">  │   │ ├─┬ set-value@0.3.3 </tspan>
<tspan x="10" y="2026">  │   │ │ ├── isobject@2.1.0 </tspan>
<tspan x="10" y="2042">  │   │ │ └── to-object-path@0.2.0 </tspan>
<tspan x="10" y="2058">  │   │ └─┬ union-value@0.2.4 </tspan>
<tspan x="10" y="2074">  │   │   └── arr-union@3.1.0 </tspan>
<tspan x="10" y="2090">  │   ├─┬ base-engines@0.2.1 </tspan>
<tspan x="10" y="2106">  │   │ ├─┬ engine-cache@0.19.4 </tspan>
<tspan x="10" y="2122">  │   │ │ ├─┬ async-helpers@0.3.14 </tspan>
<tspan x="10" y="2138">  │   │ │ │ └── safe-json-stringify@1.0.4 </tspan>
<tspan x="10" y="2154">  │   │ │ └─┬ helper-cache@0.7.2 </tspan>
<tspan x="10" y="2170">  │   │ │   ├── lazy-cache@0.2.7 </tspan>
<tspan x="10" y="2186">  │   │ │   └─┬ lodash.bind@3.1.0 </tspan>
<tspan x="10" y="2202">  │   │ │     ├─┬ lodash._createwrapper@3.2.0 </tspan>
<tspan x="10" y="2218">  │   │ │     │ └── lodash._root@3.0.1 </tspan>
<tspan x="10" y="2234">  │   │ │     ├── lodash._replaceholders@3.0.0 </tspan>
<tspan x="10" y="2250">  │   │ │     └── lodash.restparam@3.6.1 </tspan>
<tspan x="10" y="2266">  │   │ └─┬ is-valid-app@0.1.2 </tspan>
<tspan x="10" y="2282">  │   │   └─┬ is-valid-instance@0.1.0 </tspan>
<tspan x="10" y="2298">  │   │     └── isobject@2.1.0 </tspan>
<tspan x="10" y="2314">  │   ├─┬ base-helpers@0.2.0 </tspan>
<tspan x="10" y="2330">  │   │ └─┬ load-helpers@0.3.1 </tspan>
<tspan x="10" y="2346">  │   │   └── resolve-dir@0.1.1 </tspan>
<tspan x="10" y="2362">  │   ├─┬ base-plugins@0.4.13 </tspan>
<tspan x="10" y="2378">  │   │ └── isobject@2.1.0 </tspan>
<tspan x="10" y="2394">  │   ├─┬ base-routes@0.2.2 </tspan>
<tspan x="10" y="2410">  │   │ └─┬ en-route@0.7.5 </tspan>
<tspan x="10" y="2426">  │   │   ├── lazy-cache@1.0.4 </tspan>
<tspan x="10" y="2442">  │   │   └─┬ path-to-regexp@1.7.0 </tspan>
<tspan x="10" y="2458">  │   │     └── isarray@0.0.1 </tspan>
<tspan x="10" y="2474">  │   ├── deep-bind@0.3.0 </tspan>
<tspan x="10" y="2490">  │   ├─┬ engine-base@0.1.3 </tspan>
<tspan x="10" y="2506">  │   │ ├─┬ delimiter-regex@2.0.0 </tspan>
<tspan x="10" y="2522">  │   │ │ ├─┬ extend-shallow@1.1.4 </tspan>
<tspan x="10" y="2538">  │   │ │ │ └── kind-of@1.1.0 </tspan>
<tspan x="10" y="2554">  │   │ │ └── isobject@2.1.0 </tspan>
<tspan x="10" y="2570">  │   │ └─┬ engine@0.1.12 </tspan>
<tspan x="10" y="2586">  │   │   ├─┬ assign-deep@0.4.5 </tspan>
<tspan x="10" y="2602">  │   │   │ └── assign-symbols@0.1.1 </tspan>
<tspan x="10" y="2618">  │   │   ├── get-value@1.3.1 </tspan>
<tspan x="10" y="2634">  │   │   ├── kind-of@2.0.1 </tspan>
<tspan x="10" y="2650">  │   │   ├── lazy-cache@0.2.7 </tspan>
<tspan x="10" y="2666">  │   │   └─┬ set-value@0.2.0 </tspan>
<tspan x="10" y="2682">  │   │     └── isobject@1.0.2 </tspan>
<tspan x="10" y="2698">  │   ├── falsey@0.3.0 </tspan>
<tspan x="10" y="2714">  │   ├── get-view@0.1.3 </tspan>
<tspan x="10" y="2730">  │   ├─┬ group-array@0.3.3 </tspan>
<tspan x="10" y="2746">  │   │ └── split-string@1.0.1 </tspan>
<tspan x="10" y="2762">  │   ├── has-glob@1.0.0 </tspan>
<tspan x="10" y="2778">  │   ├─┬ has-value@0.3.1 </tspan>
<tspan x="10" y="2794">  │   │ ├── has-values@0.1.4 </tspan>
<tspan x="10" y="2810">  │   │ └── isobject@2.1.0 </tspan>
<tspan x="10" y="2826">  │   ├── inflection@1.12.0 </tspan>
<tspan x="10" y="2842">  │   ├─┬ layouts@0.12.1 </tspan>
<tspan x="10" y="2858">  │   │ └─┬ delimiter-regex@1.3.1 </tspan>
<tspan x="10" y="2874">  │   │   └─┬ extend-shallow@1.1.4 </tspan>
<tspan x="10" y="2890">  │   │     └── kind-of@1.1.0 </tspan>
<tspan x="10" y="2906">  │   ├── paginationator@0.1.4 </tspan>
<tspan x="10" y="2922">  │   ├── pascalcase@0.1.1 </tspan>
<tspan x="10" y="2938">  │   ├─┬ template-error@0.1.2 </tspan>
<tspan x="10" y="2954">  │   │ ├── kind-of@2.0.1 </tspan>
<tspan x="10" y="2970">  │   │ ├── lazy-cache@0.2.7 </tspan>
<tspan x="10" y="2986">  │   │ └─┬ rethrow@0.2.3 </tspan>
<tspan x="10" y="3002">  │   │   ├─┬ extend-shallow@1.1.4 </tspan>
<tspan x="10" y="3018">  │   │   │ └── kind-of@1.1.0 </tspan>
<tspan x="10" y="3034">  │   │   ├── lazy-cache@0.2.7 </tspan>
<tspan x="10" y="3050">  │   │   └─┬ right-align@0.1.3 </tspan>
<tspan x="10" y="3066">  │   │     └── align-text@0.1.4 </tspan>
<tspan x="10" y="3082">  │   ├─┬ vinyl-item@1.0.0 </tspan>
<tspan x="10" y="3098">  │   │ ├── clone@2.1.1 </tspan>
<tspan x="10" y="3114">  │   │ ├── clone-stats@1.0.0 </tspan>
<tspan x="10" y="3130">  │   │ └─┬ vinyl@2.0.2 </tspan>
<tspan x="10" y="3146">  │   │   ├── clone@1.0.2 </tspan>
<tspan x="10" y="3162">  │   │   └── replace-ext@1.0.0 </tspan>
<tspan x="10" y="3178">  │   └─┬ vinyl-view@2.0.1 </tspan>
<tspan x="10" y="3194">  │     └── arr-union@3.1.0 </tspan>
<tspan x="10" y="3210">  ├─┬ assemble-loader@1.0.5 </tspan>
<tspan x="10" y="3226">  │ ├─┬ extend-shallow@2.0.1 </tspan>
<tspan x="10" y="3242">  │ │ └── is-extendable@0.1.1 </tspan>
<tspan x="10" y="3258">  │ ├─┬ file-contents@1.0.1 </tspan>
<tspan x="10" y="3274">  │ │ ├── is-buffer@1.1.5 </tspan>
<tspan x="10" y="3290">  │ │ ├─┬ strip-bom-buffer@0.1.1 </tspan>
<tspan x="10" y="3306">  │ │ │ └── is-utf8@0.2.1 </tspan>
<tspan x="10" y="3322">  │ │ └── strip-bom-string@0.1.2 </tspan>
<tspan x="10" y="3338">  │ ├─┬ is-registered@0.1.5 </tspan>
<tspan x="10" y="3354">  │ │ └── isobject@2.1.0 </tspan>
<tspan x="10" y="3370">  │ ├── is-valid-glob@0.3.0 </tspan>
<tspan x="10" y="3386">  │ ├─┬ is-valid-instance@0.2.0 </tspan>
<tspan x="10" y="3402">  │ │ └── isobject@2.1.0 </tspan>
<tspan x="10" y="3418">  │ ├── isobject@3.0.0 </tspan>
<tspan x="10" y="3434">  │ └─┬ load-templates@1.0.2 </tspan>
<tspan x="10" y="3450">  │   ├─┬ glob-parent@3.1.0 </tspan>
<tspan x="10" y="3466">  │   │ └── path-dirname@1.0.2 </tspan>
<tspan x="10" y="3482">  │   ├─┬ is-glob@3.1.0 </tspan>
<tspan x="10" y="3498">  │   │ └── is-extglob@2.1.1 </tspan>
<tspan x="10" y="3514">  │   ├─┬ matched@0.4.4 </tspan>
<tspan x="10" y="3530">  │   │ ├── arr-union@3.1.0 </tspan>
<tspan x="10" y="3546">  │   │ ├─┬ glob@7.1.1 </tspan>
<tspan x="10" y="3562">  │   │ │ ├── fs.realpath@1.0.0 </tspan>
<tspan x="10" y="3578">  │   │ │ ├─┬ inflight@1.0.6 </tspan>
<tspan x="10" y="3594">  │   │ │ │ └── wrappy@1.0.2 </tspan>
<tspan x="10" y="3610">  │   │ │ ├─┬ minimatch@3.0.3 </tspan>
<tspan x="10" y="3626">  │   │ │ │ └─┬ brace-expansion@1.1.7 </tspan>
<tspan x="10" y="3642">  │   │ │ │   ├── balanced-match@0.4.2 </tspan>
<tspan x="10" y="3658">  │   │ │ │   └── concat-map@0.0.1 </tspan>
<tspan x="10" y="3674">  │   │ │ ├── once@1.3.3 </tspan>
<tspan x="10" y="3690">  │   │ │ └── path-is-absolute@1.0.1 </tspan>
<tspan x="10" y="3706">  │   │ ├─┬ has-glob@0.1.1 </tspan>
<tspan x="10" y="3722">  │   │ │ └─┬ is-glob@2.0.1 </tspan>
<tspan x="10" y="3738">  │   │ │   └── is-extglob@1.0.0 </tspan>
<tspan x="10" y="3754">  │   │ └── resolve-dir@0.1.1 </tspan>
<tspan x="10" y="3770">  │   └─┬ vinyl@2.0.2 </tspan>
<tspan x="10" y="3786">  │     ├── clone@1.0.2 </tspan>
<tspan x="10" y="3802">  │     ├── clone-buffer@1.0.0 </tspan>
<tspan x="10" y="3818">  │     ├── clone-stats@1.0.0 </tspan>
<tspan x="10" y="3834">  │     ├── cloneable-readable@1.0.0 </tspan>
<tspan x="10" y="3850">  │     ├── is-stream@1.1.0 </tspan>
<tspan x="10" y="3866">  │     ├── remove-trailing-separator@1.0.1 </tspan>
<tspan x="10" y="3882">  │     └── replace-ext@1.0.0 </tspan>
<tspan x="10" y="3898">  ├─┬ base-argv@0.5.0 </tspan>
<tspan x="10" y="3914">  │ ├─┬ arr-diff@3.0.0 </tspan>
<tspan x="10" y="3930">  │ │ └── arr-flatten@1.0.3 </tspan>
<tspan x="10" y="3946">  │ ├── arr-union@3.1.0 </tspan>
<tspan x="10" y="3962">  │ ├─┬ debug@2.6.3 </tspan>
<tspan x="10" y="3978">  │ │ └── ms@0.7.2 </tspan>
<tspan x="10" y="3994">  │ ├─┬ expand-args@0.4.3 </tspan>
<tspan x="10" y="4010">  │ │ ├─┬ expand-object@0.4.2 </tspan>
<tspan x="10" y="4026">  │ │ │ ├── get-stdin@5.0.1 </tspan>
<tspan x="10" y="4042">  │ │ │ ├── minimist@1.2.0 </tspan>
<tspan x="10" y="4058">  │ │ │ └─┬ set-value@0.3.3 </tspan>
<tspan x="10" y="4074">  │ │ │   ├── isobject@2.1.0 </tspan>
<tspan x="10" y="4090">  │ │ │   └── to-object-path@0.2.0 </tspan>
<tspan x="10" y="4106">  │ │ ├── minimist@1.2.0 </tspan>
<tspan x="10" y="4122">  │ │ ├─┬ omit-empty@0.4.1 </tspan>
<tspan x="10" y="4138">  │ │ │ └── reduce-object@0.1.3 </tspan>
<tspan x="10" y="4154">  │ │ └─┬ set-value@0.3.3 </tspan>
<tspan x="10" y="4170">  │ │   ├── isobject@2.1.0 </tspan>
<tspan x="10" y="4186">  │ │   └─┬ to-object-path@0.2.0 </tspan>
<tspan x="10" y="4202">  │ │     └── is-arguments@1.0.2 </tspan>
<tspan x="10" y="4218">  │ └─┬ is-valid-instance@0.1.0 </tspan>
<tspan x="10" y="4234">  │   └── isobject@2.1.0 </tspan>
<tspan x="10" y="4250">  ├─┬ base-cli-process@0.1.19 </tspan>
<tspan x="10" y="4266">  │ ├── arr-union@3.1.0 </tspan>
<tspan x="10" y="4282">  │ ├── arrayify-compact@0.2.0 </tspan>
<tspan x="10" y="4298">  │ ├─┬ base-cli@0.5.0 </tspan>
<tspan x="10" y="4314">  │ │ └─┬ base-argv@0.4.5 </tspan>
<tspan x="10" y="4330">  │ │   ├── arr-union@3.1.0 </tspan>
<tspan x="10" y="4346">  │ │   └── lazy-cache@1.0.4 </tspan>
<tspan x="10" y="4362">  │ ├─┬ base-cli-schema@0.1.19 </tspan>
<tspan x="10" y="4378">  │ │ ├── array-unique@0.2.1 </tspan>
<tspan x="10" y="4394">  │ │ ├─┬ has-glob@0.1.1 </tspan>
<tspan x="10" y="4410">  │ │ │ └─┬ is-glob@2.0.1 </tspan>
<tspan x="10" y="4426">  │ │ │   └── is-extglob@1.0.0 </tspan>
<tspan x="10" y="4442">  │ │ ├─┬ map-schema@0.2.4 </tspan>
<tspan x="10" y="4458">  │ │ │ ├── arr-union@3.1.0 </tspan>
<tspan x="10" y="4474">  │ │ │ ├─┬ collection-visit@0.2.3 </tspan>
<tspan x="10" y="4490">  │ │ │ │ ├── map-visit@0.1.5 </tspan>
<tspan x="10" y="4506">  │ │ │ │ └─┬ object-visit@0.3.4 </tspan>
<tspan x="10" y="4522">  │ │ │ │   └── isobject@2.1.0 </tspan>
<tspan x="10" y="4538">  │ │ │ ├── is-primitive@2.0.0 </tspan>
<tspan x="10" y="4554">  │ │ │ ├── longest@1.0.1 </tspan>
<tspan x="10" y="4570">  │ │ │ └── sort-object-arrays@0.1.1 </tspan>
<tspan x="10" y="4586">  │ │ ├─┬ resolve@1.3.3 </tspan>
<tspan x="10" y="4602">  │ │ │ └── path-parse@1.0.5 </tspan>
<tspan x="10" y="4618">  │ │ └─┬ tableize-object@0.1.0 </tspan>
<tspan x="10" y="4634">  │ │   └── isobject@2.1.0 </tspan>
<tspan x="10" y="4650">  │ ├─┬ base-config-process@0.1.9 </tspan>
<tspan x="10" y="4666">  │ │ └─┬ base-config-schema@0.1.22 </tspan>
<tspan x="10" y="4682">  │ │   ├── array-unique@0.3.2 </tspan>
<tspan x="10" y="4698">  │ │   ├─┬ camel-case@3.0.0 </tspan>
<tspan x="10" y="4714">  │ │   │ ├─┬ no-case@2.3.1 </tspan>
<tspan x="10" y="4730">  │ │   │ │ └── lower-case@1.1.4 </tspan>
<tspan x="10" y="4746">  │ │   │ └── upper-case@1.1.3 </tspan>
<tspan x="10" y="4762">  │ │   ├─┬ has-glob@0.1.1 </tspan>
<tspan x="10" y="4778">  │ │   │ └─┬ is-glob@2.0.1 </tspan>
<tspan x="10" y="4794">  │ │   │   └── is-extglob@1.0.0 </tspan>
<tspan x="10" y="4810">  │ │   └─┬ load-templates@0.11.4 </tspan>
<tspan x="10" y="4826">  │ │     ├── glob-parent@2.0.0 </tspan>
<tspan x="10" y="4842">  │ │     └─┬ to-file@0.2.0 </tspan>
<tspan x="10" y="4858">  │ │       ├─┬ file-contents@0.2.4 </tspan>
<tspan x="10" y="4874">  │ │       │ ├─┬ file-stat@0.1.3 </tspan>
<tspan x="10" y="4890">  │ │       │ │ └── lazy-cache@0.2.7 </tspan>
<tspan x="10" y="4906">  │ │       │ └── lazy-cache@0.2.7 </tspan>
<tspan x="10" y="4922">  │ │       ├─┬ glob-parent@2.0.0 </tspan>
<tspan x="10" y="4938">  │ │       │ └─┬ is-glob@2.0.1 </tspan>
<tspan x="10" y="4954">  │ │       │   └── is-extglob@1.0.0 </tspan>
<tspan x="10" y="4970">  │ │       └── isobject@2.1.0 </tspan>
<tspan x="10" y="4986">  │ ├─┬ base-cwd@0.3.4 </tspan>
<tspan x="10" y="5002">  │ │ ├── empty-dir@0.2.1 </tspan>
<tspan x="10" y="5018">  │ │ └─┬ find-pkg@0.1.2 </tspan>
<tspan x="10" y="5034">  │ │   └─┬ find-file-up@0.1.3 </tspan>
<tspan x="10" y="5050">  │ │     └── resolve-dir@0.1.1 </tspan>
<tspan x="10" y="5066">  │ ├─┬ base-option@0.8.4 </tspan>
<tspan x="10" y="5082">  │ │ ├── isobject@2.1.0 </tspan>
<tspan x="10" y="5098">  │ │ ├─┬ option-cache@3.4.0 </tspan>
<tspan x="10" y="5114">  │ │ │ └─┬ set-value@0.3.3 </tspan>
<tspan x="10" y="5130">  │ │ │   ├── isobject@2.1.0 </tspan>
<tspan x="10" y="5146">  │ │ │   └── to-object-path@0.2.0 </tspan>
<tspan x="10" y="5162">  │ │ └─┬ set-value@0.3.3 </tspan>
<tspan x="10" y="5178">  │ │   └── to-object-path@0.2.0 </tspan>
<tspan x="10" y="5194">  │ ├─┬ base-pkg@0.2.4 </tspan>
<tspan x="10" y="5210">  │ │ ├─┬ cache-base@0.8.5 </tspan>
<tspan x="10" y="5226">  │ │ │ └── unset-value@0.1.2 </tspan>
<tspan x="10" y="5242">  │ │ ├─┬ expand-pkg@0.1.8 </tspan>
<tspan x="10" y="5258">  │ │ │ ├── load-pkg@3.0.1 </tspan>
<tspan x="10" y="5274">  │ │ │ ├─┬ normalize-pkg@0.3.20 </tspan>
<tspan x="10" y="5290">  │ │ │ │ ├── arr-union@3.1.0 </tspan>
<tspan x="10" y="5306">  │ │ │ │ ├── array-unique@0.3.2 </tspan>
<tspan x="10" y="5322">  │ │ │ │ ├── minimist@1.2.0 </tspan>
<tspan x="10" y="5338">  │ │ │ │ ├── semver@5.3.0 </tspan>
<tspan x="10" y="5354">  │ │ │ │ └── stringify-author@0.1.3 </tspan>
<tspan x="10" y="5370">  │ │ │ ├── parse-author@1.0.0 </tspan>
<tspan x="10" y="5386">  │ │ │ ├─┬ parse-git-config@1.1.1 </tspan>
<tspan x="10" y="5402">  │ │ │ │ └── git-config-path@1.0.1 </tspan>
<tspan x="10" y="5418">  │ │ │ └─┬ repo-utils@0.3.7 </tspan>
<tspan x="10" y="5434">  │ │ │   ├─┬ is-absolute@0.2.6 </tspan>
<tspan x="10" y="5450">  │ │ │   │ └─┬ is-relative@0.2.1 </tspan>
<tspan x="10" y="5466">  │ │ │   │   └─┬ is-unc-path@0.1.2 </tspan>
<tspan x="10" y="5482">  │ │ │   │     └── unc-path-regex@0.1.2 </tspan>
<tspan x="10" y="5498">  │ │ │   └── parse-github-url@0.3.2 </tspan>
<tspan x="10" y="5514">  │ │ ├─┬ is-valid-app@0.1.2 </tspan>
<tspan x="10" y="5530">  │ │ │ └─┬ is-valid-instance@0.1.0 </tspan>
<tspan x="10" y="5546">  │ │ │   └── isobject@2.1.0 </tspan>
<tspan x="10" y="5562">  │ │ ├─┬ log-utils@0.1.5 </tspan>
<tspan x="10" y="5578">  │ │ │ └─┬ ansi-colors@0.1.0 </tspan>
<tspan x="10" y="5594">  │ │ │   └── lazy-cache@0.2.7 </tspan>
<tspan x="10" y="5610">  │ │ └─┬ pkg-store@0.2.2 </tspan>
<tspan x="10" y="5626">  │ │   ├── lazy-cache@1.0.4 </tspan>
<tspan x="10" y="5642">  │ │   └─┬ write-json@0.2.2 </tspan>
<tspan x="10" y="5658">  │ │     └── write@0.2.1 </tspan>
<tspan x="10" y="5674">  │ ├── kind-of@3.1.0 </tspan>
<tspan x="10" y="5690">  │ ├─┬ merge-deep@3.0.0 </tspan>
<tspan x="10" y="5706">  │ │ ├── arr-union@3.1.0 </tspan>
<tspan x="10" y="5722">  │ │ └── lazy-cache@1.0.4 </tspan>
<tspan x="10" y="5738">  │ ├─┬ mixin-deep@1.2.0 </tspan>
<tspan x="10" y="5754">  │ │ └── for-in@1.0.2 </tspan>
<tspan x="10" y="5770">  │ ├─┬ object.pick@1.2.0 </tspan>
<tspan x="10" y="5786">  │ │ └── isobject@2.1.0 </tspan>
<tspan x="10" y="5802">  │ ├─┬ pad-right@0.2.2 </tspan>
<tspan x="10" y="5818">  │ │ └── repeat-string@1.6.1 </tspan>
<tspan x="10" y="5834">  │ └── union-value@1.0.0 </tspan>
<tspan x="10" y="5850">  ├─┬ base-config@0.5.2 </tspan>
<tspan x="10" y="5866">  │ ├─┬ isobject@2.1.0 </tspan>
<tspan x="10" y="5882">  │ │ └── isarray@1.0.0 </tspan>
<tspan x="10" y="5898">  │ ├── lazy-cache@1.0.4 </tspan>
<tspan x="10" y="5914">  │ ├─┬ map-config@0.5.0 </tspan>
<tspan x="10" y="5930">  │ │ └── async@1.5.2 </tspan>
<tspan x="10" y="5946">  │ └─┬ resolve-dir@0.1.1 </tspan>
<tspan x="10" y="5962">  │   └─┬ expand-tilde@1.2.2 </tspan>
<tspan x="10" y="5978">  │     └── os-homedir@1.0.2 </tspan>
<tspan x="10" y="5994">  ├─┬ base-questions@0.9.1 </tspan>
<tspan x="10" y="6010">  │ ├─┬ base-store@0.4.4 </tspan>
<tspan x="10" y="6026">  │ │ ├─┬ data-store@0.16.1 </tspan>
<tspan x="10" y="6042">  │ │ │ ├── has-own-deep@0.1.4 </tspan>
<tspan x="10" y="6058">  │ │ │ ├── resolve-dir@0.1.1 </tspan>
<tspan x="10" y="6074">  │ │ │ └─┬ rimraf@2.6.1 </tspan>
<tspan x="10" y="6090">  │ │ │   └── glob@7.1.1 </tspan>
<tspan x="10" y="6106">  │ │ ├─┬ is-valid-instance@0.1.0 </tspan>
<tspan x="10" y="6122">  │ │ │ └── isobject@2.1.0 </tspan>
<tspan x="10" y="6138">  │ │ └─┬ project-name@0.2.6 </tspan>
<tspan x="10" y="6154">  │ │   ├─┬ git-repo-name@0.6.0 </tspan>
<tspan x="10" y="6170">  │ │   │ ├── cwd@0.9.1 </tspan>
<tspan x="10" y="6186">  │ │   │ ├── file-name@0.1.0 </tspan>
<tspan x="10" y="6202">  │ │   │ ├── lazy-cache@1.0.4 </tspan>
<tspan x="10" y="6218">  │ │   │ └── remote-origin-url@0.5.2 </tspan>
<tspan x="10" y="6234">  │ │   └── minimist@1.2.0 </tspan>
<tspan x="10" y="6250">  │ ├─┬ clone-deep@0.2.4 </tspan>
<tspan x="10" y="6266">  │ │ ├── for-own@0.1.5 </tspan>
<tspan x="10" y="6282">  │ │ ├─┬ is-plain-object@2.0.1 </tspan>
<tspan x="10" y="6298">  │ │ │ └── isobject@1.0.2 </tspan>
<tspan x="10" y="6314">  │ │ ├── lazy-cache@1.0.4 </tspan>
<tspan x="10" y="6330">  │ │ └─┬ shallow-clone@0.1.2 </tspan>
<tspan x="10" y="6346">  │ │   ├── kind-of@2.0.1 </tspan>
<tspan x="10" y="6362">  │ │   ├── lazy-cache@0.2.7 </tspan>
<tspan x="10" y="6378">  │ │   └─┬ mixin-object@2.0.1 </tspan>
<tspan x="10" y="6394">  │ │     └── for-in@0.1.8 </tspan>
<tspan x="10" y="6410">  │ ├── get-value@2.0.6 </tspan>
<tspan x="10" y="6426">  │ ├── isobject@2.1.0 </tspan>
<tspan x="10" y="6442">  │ ├─┬ question-store@0.13.1 </tspan>
<tspan x="10" y="6458">  │ │ ├─┬ common-config@0.1.0 </tspan>
<tspan x="10" y="6474">  │ │ │ ├─┬ composer@0.13.0 </tspan>
<tspan x="10" y="6490">  │ │ │ │ ├─┬ bach@0.5.0 </tspan>
<tspan x="10" y="6506">  │ │ │ │ │ ├─┬ async-settle@0.2.1 </tspan>
<tspan x="10" y="6522">  │ │ │ │ │ │ └─┬ async-done@0.4.0 </tspan>
<tspan x="10" y="6538">  │ │ │ │ │ │   ├── end-of-stream@0.1.5 </tspan>
<tspan x="10" y="6554">  │ │ │ │ │ │   └── next-tick@0.2.2 </tspan>
<tspan x="10" y="6570">  │ │ │ │ │ ├── lodash.filter@4.6.0 </tspan>
<tspan x="10" y="6586">  │ │ │ │ │ ├── lodash.flatten@4.4.0 </tspan>
<tspan x="10" y="6602">  │ │ │ │ │ ├── lodash.foreach@4.5.0 </tspan>
<tspan x="10" y="6618">  │ │ │ │ │ ├── lodash.initial@4.1.1 </tspan>
<tspan x="10" y="6634">  │ │ │ │ │ ├── lodash.last@3.0.0 </tspan>
<tspan x="10" y="6650">  │ │ │ │ │ ├── lodash.map@4.6.0 </tspan>
<tspan x="10" y="6666">  │ │ │ │ │ └── now-and-later@0.0.6 </tspan>
<tspan x="10" y="6682">  │ │ │ │ ├─┬ is-glob@2.0.1 </tspan>
<tspan x="10" y="6698">  │ │ │ │ │ └── is-extglob@1.0.0 </tspan>
<tspan x="10" y="6714">  │ │ │ │ └── isobject@2.1.0 </tspan>
<tspan x="10" y="6730">  │ │ │ ├─┬ question-cache@0.4.0 </tspan>
<tspan x="10" y="6746">  │ │ │ │ ├── arr-union@3.1.0 </tspan>
<tspan x="10" y="6762">  │ │ │ │ ├── lazy-cache@1.0.4 </tspan>
<tspan x="10" y="6778">  │ │ │ │ ├─┬ omit-empty@0.3.6 </tspan>
<tspan x="10" y="6794">  │ │ │ │ │ └── is-date-object@1.0.1 </tspan>
<tspan x="10" y="6810">  │ │ │ │ └─┬ use@1.1.2 </tspan>
<tspan x="10" y="6826">  │ │ │ │   └── isobject@2.1.0 </tspan>
<tspan x="10" y="6842">  │ │ │ ├─┬ set-value@0.3.3 </tspan>
<tspan x="10" y="6858">  │ │ │ │ └── to-object-path@0.2.0 </tspan>
<tspan x="10" y="6874">  │ │ │ ├── strip-color@0.1.0 </tspan>
<tspan x="10" y="6890">  │ │ │ ├── text-table@0.2.0 </tspan>
<tspan x="10" y="6906">  │ │ │ └─┬ yargs-parser@2.4.1 </tspan>
<tspan x="10" y="6922">  │ │ │   └── lodash.assign@4.2.0 </tspan>
<tspan x="10" y="6938">  │ │ ├── is-answer@0.1.1 </tspan>
<tspan x="10" y="6954">  │ │ └─┬ question-cache@0.7.0 </tspan>
<tspan x="10" y="6970">  │ │   ├── arr-union@3.1.0 </tspan>
<tspan x="10" y="6986">  │ │   ├── async-each-series@1.1.0 </tspan>
<tspan x="10" y="7002">  │ │   ├─┬ inquirer2@0.1.1 </tspan>
<tspan x="10" y="7018">  │ │   │ ├── ansi-escapes@1.4.0 </tspan>
<tspan x="10" y="7034">  │ │   │ ├── ansi-regex@2.1.1 </tspan>
<tspan x="10" y="7050">  │ │   │ ├── arr-pluck@0.1.0 </tspan>
<tspan x="10" y="7066">  │ │   │ ├─┬ chalk@1.1.3 </tspan>
<tspan x="10" y="7082">  │ │   │ │ ├── ansi-styles@2.2.1 </tspan>
<tspan x="10" y="7098">  │ │   │ │ ├── escape-string-regexp@1.0.5 </tspan>
<tspan x="10" y="7114">  │ │   │ │ ├── has-ansi@2.0.0 </tspan>
<tspan x="10" y="7130">  │ │   │ │ ├── strip-ansi@3.0.1 </tspan>
<tspan x="10" y="7146">  │ │   │ │ └── supports-color@2.0.0 </tspan>
<tspan x="10" y="7162">  │ │   │ ├─┬ cli-cursor@1.0.2 </tspan>
<tspan x="10" y="7178">  │ │   │ │ └─┬ restore-cursor@1.0.1 </tspan>
<tspan x="10" y="7194">  │ │   │ │   ├── exit-hook@1.1.1 </tspan>
<tspan x="10" y="7210">  │ │   │ │   └── onetime@1.1.0 </tspan>
<tspan x="10" y="7226">  │ │   │ ├── cli-width@1.1.1 </tspan>
<tspan x="10" y="7242">  │ │   │ ├── figures@1.7.0 </tspan>
<tspan x="10" y="7258">  │ │   │ ├── lazy-cache@1.0.4 </tspan>
<tspan x="10" y="7274">  │ │   │ ├─┬ lodash.where@3.1.0 </tspan>
<tspan x="10" y="7290">  │ │   │ │ ├── lodash._arrayfilter@3.0.0 </tspan>
<tspan x="10" y="7306">  │ │   │ │ ├─┬ lodash._basecallback@3.3.1 </tspan>
<tspan x="10" y="7322">  │ │   │ │ │ ├─┬ lodash._baseisequal@3.0.7 </tspan>
<tspan x="10" y="7338">  │ │   │ │ │ │ ├── lodash.istypedarray@3.0.6 </tspan>
<tspan x="10" y="7354">  │ │   │ │ │ │ └─┬ lodash.keys@3.1.2 </tspan>
<tspan x="10" y="7370">  │ │   │ │ │ │   ├── lodash._getnative@3.9.1 </tspan>
<tspan x="10" y="7386">  │ │   │ │ │ │   └── lodash.isarguments@3.1.0 </tspan>
<tspan x="10" y="7402">  │ │   │ │ │ ├── lodash._bindcallback@3.0.1 </tspan>
<tspan x="10" y="7418">  │ │   │ │ │ └── lodash.pairs@3.0.1 </tspan>
<tspan x="10" y="7434">  │ │   │ │ ├─┬ lodash._basefilter@3.0.0 </tspan>
<tspan x="10" y="7450">  │ │   │ │ │ └── lodash._baseeach@3.0.4 </tspan>
<tspan x="10" y="7466">  │ │   │ │ ├─┬ lodash._basematches@3.2.0 </tspan>
<tspan x="10" y="7482">  │ │   │ │ │ └── lodash._baseismatch@3.1.3 </tspan>
<tspan x="10" y="7498">  │ │   │ │ └── lodash.isarray@3.0.4 </tspan>
<tspan x="10" y="7514">  │ │   │ ├─┬ readline2@1.0.1 </tspan>
<tspan x="10" y="7530">  │ │   │ │ ├── code-point-at@1.1.0 </tspan>
<tspan x="10" y="7546">  │ │   │ │ ├─┬ is-fullwidth-code-point@1.0.0 </tspan>
<tspan x="10" y="7562">  │ │   │ │ │ └── number-is-nan@1.0.1 </tspan>
<tspan x="10" y="7578">  │ │   │ │ └── mute-stream@0.0.5 </tspan>
<tspan x="10" y="7594">  │ │   │ ├── run-async@0.1.0 </tspan>
<tspan x="10" y="7610">  │ │   │ └── rx-lite@4.0.8 </tspan>
<tspan x="10" y="7626">  │ │   ├── isobject@2.1.0 </tspan>
<tspan x="10" y="7642">  │ │   ├─┬ set-value@0.3.3 </tspan>
<tspan x="10" y="7658">  │ │   │ └── to-object-path@0.2.0 </tspan>
<tspan x="10" y="7674">  │ │   ├── to-choices@0.2.0 </tspan>
<tspan x="10" y="7690">  │ │   └─┬ use@2.0.2 </tspan>
<tspan x="10" y="7706">  │ │     └── isobject@3.0.0 </tspan>
<tspan x="10" y="7722">  │ └─┬ set-value@0.4.3 </tspan>
<tspan x="10" y="7738">  │   └── to-object-path@0.3.0 </tspan>
<tspan x="10" y="7754">  ├─┬ base-runtimes@0.2.0 </tspan>
<tspan x="10" y="7770">  │ ├─┬ log-utils@0.1.5 </tspan>
<tspan x="10" y="7786">  │ │ └─┬ ansi-colors@0.1.0 </tspan>
<tspan x="10" y="7802">  │ │   └── lazy-cache@0.2.7 </tspan>
<tspan x="10" y="7818">  │ ├─┬ micromatch@2.3.11 </tspan>
<tspan x="10" y="7834">  │ │ ├── arr-diff@2.0.0 </tspan>
<tspan x="10" y="7850">  │ │ ├─┬ braces@1.8.5 </tspan>
<tspan x="10" y="7866">  │ │ │ ├─┬ expand-range@1.8.2 </tspan>
<tspan x="10" y="7882">  │ │ │ │ └─┬ fill-range@2.2.3 </tspan>
<tspan x="10" y="7898">  │ │ │ │   ├── isobject@2.1.0 </tspan>
<tspan x="10" y="7914">  │ │ │ │   └── randomatic@1.1.6 </tspan>
<tspan x="10" y="7930">  │ │ │ ├── preserve@0.2.0 </tspan>
<tspan x="10" y="7946">  │ │ │ └── repeat-element@1.1.2 </tspan>
<tspan x="10" y="7962">  │ │ ├─┬ expand-brackets@0.1.5 </tspan>
<tspan x="10" y="7978">  │ │ │ └── is-posix-bracket@0.1.1 </tspan>
<tspan x="10" y="7994">  │ │ ├─┬ extglob@0.3.2 </tspan>
<tspan x="10" y="8010">  │ │ │ └── is-extglob@1.0.0 </tspan>
<tspan x="10" y="8026">  │ │ ├── filename-regex@2.0.0 </tspan>
<tspan x="10" y="8042">  │ │ ├── is-extglob@1.0.0 </tspan>
<tspan x="10" y="8058">  │ │ ├── is-glob@2.0.1 </tspan>
<tspan x="10" y="8074">  │ │ ├── normalize-path@2.1.1 </tspan>
<tspan x="10" y="8090">  │ │ ├── object.omit@2.0.1 </tspan>
<tspan x="10" y="8106">  │ │ ├─┬ parse-glob@3.0.4 </tspan>
<tspan x="10" y="8122">  │ │ │ ├─┬ glob-base@0.3.0 </tspan>
<tspan x="10" y="8138">  │ │ │ │ ├── glob-parent@2.0.0 </tspan>
<tspan x="10" y="8154">  │ │ │ │ └─┬ is-glob@2.0.1 </tspan>
<tspan x="10" y="8170">  │ │ │ │   └── is-extglob@1.0.0 </tspan>
<tspan x="10" y="8186">  │ │ │ ├── is-dotfile@1.0.2 </tspan>
<tspan x="10" y="8202">  │ │ │ ├── is-extglob@1.0.0 </tspan>
<tspan x="10" y="8218">  │ │ │ └── is-glob@2.0.1 </tspan>
<tspan x="10" y="8234">  │ │ └─┬ regex-cache@0.4.3 </tspan>
<tspan x="10" y="8250">  │ │   └── is-equal-shallow@0.1.3 </tspan>
<tspan x="10" y="8266">  │ └─┬ time-diff@0.3.1 </tspan>
<tspan x="10" y="8282">  │   ├── is-number@2.1.0 </tspan>
<tspan x="10" y="8298">  │   ├─┬ log-utils@0.1.5 </tspan>
<tspan x="10" y="8314">  │   │ └─┬ ansi-colors@0.1.0 </tspan>
<tspan x="10" y="8330">  │   │   └── lazy-cache@0.2.7 </tspan>
<tspan x="10" y="8346">  │   └── pretty-time@0.2.0 </tspan>
<tspan x="10" y="8362">  ├─┬ cross-spawn@5.1.0 </tspan>
<tspan x="10" y="8378">  │ ├─┬ lru-cache@4.0.2 </tspan>
<tspan x="10" y="8394">  │ │ ├── pseudomap@1.0.2 </tspan>
<tspan x="10" y="8410">  │ │ └── yallist@2.1.2 </tspan>
<tspan x="10" y="8426">  │ ├─┬ shebang-command@1.2.0 </tspan>
<tspan x="10" y="8442">  │ │ └── shebang-regex@1.0.0 </tspan>
<tspan x="10" y="8458">  │ └─┬ which@1.2.14 </tspan>
<tspan x="10" y="8474">  │   └── isexe@2.0.0 </tspan>
<tspan x="10" y="8490">  ├─┬ engine-handlebars@0.8.2 </tspan>
<tspan x="10" y="8506">  │ ├── engine-utils@0.1.1 </tspan>
<tspan x="10" y="8522">  │ └─┬ handlebars@4.0.6 </tspan>
<tspan x="10" y="8538">  │   ├─┬ optimist@0.6.1 </tspan>
<tspan x="10" y="8554">  │   │ ├── minimist@0.0.8 </tspan>
<tspan x="10" y="8570">  │   │ └── wordwrap@0.0.3 </tspan>
<tspan x="10" y="8586">  │   ├─┬ source-map@0.4.4 </tspan>
<tspan x="10" y="8602">  │   │ └── amdefine@1.0.1 </tspan>
<tspan x="10" y="8618">  │   └─┬ uglify-js@2.8.22 </tspan>
<tspan x="10" y="8634">  │     ├── source-map@0.5.6 </tspan>
<tspan x="10" y="8650">  │     ├── uglify-to-browserify@1.0.2 </tspan>
<tspan x="10" y="8666">  │     └─┬ yargs@3.10.0 </tspan>
<tspan x="10" y="8682">  │       ├── camelcase@1.2.1 </tspan>
<tspan x="10" y="8698">  │       ├─┬ cliui@2.1.0 </tspan>
<tspan x="10" y="8714">  │       │ ├─┬ center-align@0.1.3 </tspan>
<tspan x="10" y="8730">  │       │ │ └── lazy-cache@1.0.4 </tspan>
<tspan x="10" y="8746">  │       │ └── wordwrap@0.0.2 </tspan>
<tspan x="10" y="8762">  │       ├── decamelize@1.2.0 </tspan>
<tspan x="10" y="8778">  │       └── window-size@0.1.0 </tspan>
<tspan x="10" y="8794">  ├─┬ export-files@2.1.1 </tspan>
<tspan x="10" y="8810">  │ └── lazy-cache@1.0.4 </tspan>
<tspan x="10" y="8826">  ├── fs-exists-sync@0.1.0 </tspan>
<tspan x="10" y="8842">  ├─┬ global-modules@0.2.3 </tspan>
<tspan x="10" y="8858">  │ ├─┬ global-prefix@0.1.5 </tspan>
<tspan x="10" y="8874">  │ │ ├─┬ homedir-polyfill@1.0.1 </tspan>
<tspan x="10" y="8890">  │ │ │ └── parse-passwd@1.0.0 </tspan>
<tspan x="10" y="8906">  │ │ └── ini@1.3.4 </tspan>
<tspan x="10" y="8922">  │ └── is-windows@0.2.0 </tspan>
<tspan x="10" y="8938">  ├── is-valid-app@0.2.1 </tspan>
<tspan x="10" y="8954">  ├─┬ lazy-cache@2.0.2 </tspan>
<tspan x="10" y="8970">  │ └── set-getter@0.1.0 </tspan>
<tspan x="10" y="8986">  ├─┬ log-utils@0.2.1 </tspan>
<tspan x="10" y="9002">  │ ├─┬ ansi-colors@0.2.0 </tspan>
<tspan x="10" y="9018">  │ │ ├─┬ ansi-bgblack@0.1.1 </tspan>
<tspan x="10" y="9034">  │ │ │ └── ansi-wrap@0.1.0 </tspan>
<tspan x="10" y="9050">  │ │ ├── ansi-bgblue@0.1.1 </tspan>
<tspan x="10" y="9066">  │ │ ├── ansi-bgcyan@0.1.1 </tspan>
<tspan x="10" y="9082">  │ │ ├── ansi-bggreen@0.1.1 </tspan>
<tspan x="10" y="9098">  │ │ ├── ansi-bgmagenta@0.1.1 </tspan>
<tspan x="10" y="9114">  │ │ ├── ansi-bgred@0.1.1 </tspan>
<tspan x="10" y="9130">  │ │ ├── ansi-bgwhite@0.1.1 </tspan>
<tspan x="10" y="9146">  │ │ ├── ansi-bgyellow@0.1.1 </tspan>
<tspan x="10" y="9162">  │ │ ├── ansi-black@0.1.1 </tspan>
<tspan x="10" y="9178">  │ │ ├── ansi-blue@0.1.1 </tspan>
<tspan x="10" y="9194">  │ │ ├── ansi-bold@0.1.1 </tspan>
<tspan x="10" y="9210">  │ │ ├── ansi-cyan@0.1.1 </tspan>
<tspan x="10" y="9226">  │ │ ├── ansi-dim@0.1.1 </tspan>
<tspan x="10" y="9242">  │ │ ├── ansi-gray@0.1.1 </tspan>
<tspan x="10" y="9258">  │ │ ├── ansi-green@0.1.1 </tspan>
<tspan x="10" y="9274">  │ │ ├── ansi-grey@0.1.1 </tspan>
<tspan x="10" y="9290">  │ │ ├── ansi-hidden@0.1.1 </tspan>
<tspan x="10" y="9306">  │ │ ├── ansi-inverse@0.1.1 </tspan>
<tspan x="10" y="9322">  │ │ ├── ansi-italic@0.1.1 </tspan>
<tspan x="10" y="9338">  │ │ ├── ansi-magenta@0.1.1 </tspan>
<tspan x="10" y="9354">  │ │ ├── ansi-red@0.1.1 </tspan>
<tspan x="10" y="9370">  │ │ ├── ansi-reset@0.1.1 </tspan>
<tspan x="10" y="9386">  │ │ ├── ansi-strikethrough@0.1.1 </tspan>
<tspan x="10" y="9402">  │ │ ├── ansi-underline@0.1.1 </tspan>
<tspan x="10" y="9418">  │ │ ├── ansi-white@0.1.1 </tspan>
<tspan x="10" y="9434">  │ │ └── ansi-yellow@0.1.1 </tspan>
<tspan x="10" y="9450">  │ ├── error-symbol@0.1.0 </tspan>
<tspan x="10" y="9466">  │ ├── info-symbol@0.1.0 </tspan>
<tspan x="10" y="9482">  │ ├── log-ok@0.1.1 </tspan>
<tspan x="10" y="9498">  │ ├── success-symbol@0.1.0 </tspan>
<tspan x="10" y="9514">  │ ├── time-stamp@1.0.1 </tspan>
<tspan x="10" y="9530">  │ └── warning-symbol@0.1.0 </tspan>
<tspan x="10" y="9546">  ├─┬ parser-front-matter@1.6.2 </tspan>
<tspan x="10" y="9562">  │ ├─┬ file-is-binary@0.2.3 </tspan>
<tspan x="10" y="9578">  │ │ └── isbinaryfile@3.0.2 </tspan>
<tspan x="10" y="9594">  │ ├─┬ gray-matter@2.1.1 </tspan>
<tspan x="10" y="9610">  │ │ ├── coffee-script@1.12.5 </tspan>
<tspan x="10" y="9626">  │ │ ├─┬ js-yaml@3.8.3 </tspan>
<tspan x="10" y="9642">  │ │ │ ├─┬ argparse@1.0.9 </tspan>
<tspan x="10" y="9658">  │ │ │ │ └── sprintf-js@1.0.3 </tspan>
<tspan x="10" y="9674">  │ │ │ └── esprima@3.1.3 </tspan>
<tspan x="10" y="9690">  │ │ └── toml@2.3.2 </tspan>
<tspan x="10" y="9706">  │ ├── isobject@2.1.0 </tspan>
<tspan x="10" y="9722">  │ └─┬ trim-leading-lines@0.1.1 </tspan>
<tspan x="10" y="9738">  │   └── is-whitespace@0.3.0 </tspan>
<tspan x="10" y="9754">  ├─┬ resolve-dir@1.0.0 </tspan>
<tspan x="10" y="9770">  │ └── expand-tilde@2.0.2 </tspan>
<tspan x="10" y="9786">  └─┬ yargs-parser@4.2.1 </tspan>
<tspan x="10" y="9802">    └── camelcase@3.0.0</tspan>
</text>
</svg>
